<svg version="1.1" id="Layer_1" xmlns="http://www.w3.org/2000/svg" x="0" y="0" viewBox="0 0 554 171" style="enable-background:new 0 0 554 171" xml:space="preserve" fill="#004F59"><path d="M394.255 2.404h26.877v10.172c1.818-1.341 3.326-2.525 4.905-3.606C432.673 4.43 440.075 1.9 448 .917c8.675-1.076 17.265-.527 25.66 2.011 11.247 3.4 20.774 9.49 28.39 18.486 8.335 9.844 13.153 21.207 14.648 34.002 1.813 15.514-1.036 30.066-9.235 43.419-5.544 9.03-13.056 16.04-22.402 21.124-10.57 5.75-21.888 7.912-33.765 7.033-10.59-.783-20.287-4.183-28.552-11.104-.415-.348-.85-.673-1.502-1.186v55.61h-26.988V2.404zM421.19 63.6c0 6.907-.01 13.815.018 20.723.002.632.087 1.37.415 1.876 2.448 3.782 5.598 6.875 9.325 9.415 6.558 4.47 13.858 6.44 21.712 6.493 14.028.094 24.866-5.737 31.819-17.975 6.42-11.3 6.935-23.286 2.52-35.387-3.309-9.07-9.414-15.823-18.208-20.017-5.935-2.831-12.216-3.538-18.698-3.116-11.653.76-21.068 5.69-28.082 15.061-.475.635-.779 1.562-.786 2.357-.06 6.856-.035 13.713-.035 20.57zM113.74 23.302 94.62 40.234c-2.805-2.5-5.406-5.123-8.31-7.35-12.746-9.776-33.046-10.023-45.982 2.02-8.547 7.957-12.014 17.953-12.03 29.326-.013 8.286 2.12 16.056 7.029 22.8 7.2 9.894 17.048 14.89 29.321 14.827 11.238-.058 20.496-4.569 28.009-12.827.481-.53.966-1.057 1.456-1.578.067-.07.177-.098.385-.208l19.213 17.016c-15.39 18.634-40.39 27.818-67.39 20.485C19.269 117.398 2.728 93.46.932 68.668-1.23 38.838 16.714 12.44 43.317 3.756 68.83-4.572 96.17 2.316 113.74 23.302zM278.87 102.007l20.921-14.078c.648 1.031 1.219 1.988 1.835 2.914 3.294 4.946 7.245 9.253 12.942 11.345 7.605 2.792 15.243 2.883 22.585-.992 6.014-3.176 7.236-11.453 2.573-16.606-2.615-2.889-6.002-4.61-9.493-6.066-6.372-2.658-12.868-5.018-19.228-7.704-7.01-2.96-13.27-7.053-18.142-13.031-8.757-10.745-10.78-26.967-3.879-38.869 3.904-6.733 9.517-11.619 16.663-14.626 13.266-5.584 26.502-5.223 39.578.68 6.93 3.127 12.962 9.15 16.95 16.632l-17.88 13.505c-1.847-2.188-3.511-4.458-5.475-6.429-6.058-6.082-15.687-7.325-23.12-3.415-6.637 3.49-6.197 11.328-3 15.548 2.224 2.938 5.302 4.671 8.55 6.047 6.356 2.692 12.818 5.136 19.211 7.746a63.521 63.521 0 0 1 14.372 8.16c7.855 5.94 12.402 13.746 13.314 23.576.957 10.323-1.547 19.632-8.6 27.417-4.823 5.324-10.892 8.828-17.735 10.83-14.88 4.355-29.458 3.458-43.48-3.31-8.515-4.108-14.687-10.782-19.414-18.865-.047-.08-.026-.198-.047-.41zM227.85 2.44h26.872v122.683h-26.873V2.44zM137.237 125.181h26.954V28.936h-26.954v96.245zM164.19 2.493v26.443h41.938V2.493h-41.937zM526.966 98.447v26.444h26.954V98.447h-26.954z"/></svg>