<svg width="14" height="14" xmlns="http://www.w3.org/2000/svg" fill="#00807f"><path d="M6.675 2.9a.744.744 0 0 1 .65.37.742.742 0 0 1-.534 1.103l-.111.007H1.979v7.64h7.64l.001-4.695a.74.74 0 0 1 .194-.507l.082-.077.094-.065a.742.742 0 0 1 1.103.534l.007.11v5.2c0 .26-.096.513-.281.699a.973.973 0 0 1-.57.273l-.129.008H1.48a.985.985 0 0 1-.699-.281.973.973 0 0 1-.273-.57L.5 12.52V3.88c0-.26.096-.513.281-.699a.973.973 0 0 1 .57-.273L1.48 2.9h5.195ZM9.018.5H13.5v4.432a.743.743 0 0 1-.37.65.742.742 0 0 1-1.103-.534l-.007-.11-.001-1.908-4.13 4.121a.742.742 0 0 1-.533.272l-.103-.001-.104-.016a.742.742 0 0 1-.555-.556.74.74 0 0 1 .153-.645l.064-.06 4.159-4.166-1.862-.001a.742.742 0 0 1-.758-.467l-.032-.103-.016-.1C8.268.935 8.517.6 8.907.516L9.017.5Z" fill-rule="nonzero"/></svg>