<?xml version="1.0" encoding="UTF-8"?>
<svg width="14px" height="14px" viewBox="0 0 14 14" version="1.1" xmlns="http://www.w3.org/2000/svg" xmlns:xlink="http://www.w3.org/1999/xlink" fill="#00807f">
    <g stroke="none" stroke-width="1" fill-rule="evenodd">
        <g transform="translate(-650.000000, -379.000000)" fill-rule="nonzero">
            <g transform="translate(521.000000, 209.000000)">
                <g>
                    <g transform="translate(42.000000, 168.000000)">
                        <g transform="translate(88.000000, 3.000000)">
                            <path d="M5.67495818,1.89991983 C5.94022752,1.89728272 6.1872392,2.0363338 6.32439029,2.26982648 C6.45624494,2.49913827 6.45624494,2.78086173 6.32204347,3.0142112 C6.20644698,3.21097197 6.00832956,3.34126921 5.79035307,3.37268331 L5.68,3.38 L0.979,3.38 L0.979,11.02 L8.619,11.02 L8.62002953,6.32543411 C8.61796885,6.13583978 8.68834423,5.95555668 8.8138553,5.8180111 L8.89563981,5.74087967 L8.98982648,5.67560971 C9.21913827,5.54375506 9.50086173,5.54375506 9.73421222,5.67795714 C9.93088729,5.7935039 10.0611435,5.99148805 10.0926772,6.20957178 L10.1000677,6.32 L10.1000677,11.52 C10.1000677,11.7790539 10.0038515,12.0332553 9.81855339,12.2185534 C9.66412757,12.3729792 9.46187572,12.4654777 9.24882794,12.4920209 L9.12,12.5 L0.48,12.5 C0.220938235,12.5 -0.0332424367,12.4038643 -0.218553391,12.2185534 C-0.372979209,12.0641276 -0.465477698,11.8618757 -0.492020921,11.6488279 L-0.5,11.52 L-0.5,2.88 C-0.5,2.62093823 -0.403864344,2.36675756 -0.218553391,2.18144661 C-0.064138348,2.02703157 0.13812636,1.93447889 0.351173999,1.90791731 L0.48,1.89991983 L5.67495818,1.89991983 Z M8.0175,-0.5 L12.5000284,-0.5 L12.5000284,3.93214914 C12.5028261,4.19754685 12.3637444,4.44469328 12.1301735,4.58189029 C11.9008617,4.71374494 11.6191383,4.71374494 11.3857888,4.57954347 C11.189028,4.46394698 11.0587308,4.26582956 11.0273167,4.04785307 L11.02,3.9375 L11.019,2.03 L6.88993283,6.15106297 C6.75636539,6.31479114 6.56203857,6.41177918 6.35637334,6.42326139 L6.25282466,6.42179013 L6.14875906,6.40554664 C5.873698,6.3418487 5.6581513,6.126302 5.59419654,5.85012614 C5.53888009,5.60874665 5.60826385,5.35952435 5.74742823,5.20455724 L5.81118227,5.14421115 L9.97,0.979 L8.10840439,0.977888328 C7.77276796,1.00883339 7.46772012,0.810404872 7.35013579,0.511190745 L7.31809929,0.407896292 L7.30211167,0.308404392 C7.26772827,-0.0645249298 7.51652205,-0.399690447 7.90746176,-0.483527182 L8.0175,-0.5 Z"></path>
                        </g>
                    </g>
                </g>
            </g>
        </g>
    </g>
</svg>
